<svg width="24" height="27" viewBox="0 0 24 27" fill="none" xmlns="http://www.w3.org/2000/svg">
<path d="M19 8.14972H16V7.09829C16 5.98287 15.5786 4.91313 14.8284 4.1244C14.0783 3.33568 13.0609 2.89258 12 2.89258C10.9391 2.89258 9.92172 3.33568 9.17157 4.1244C8.42143 4.91313 8 5.98287 8 7.09829V8.14972H5C4.73478 8.14972 4.48043 8.2605 4.29289 8.45768C4.10536 8.65486 4 8.92229 4 9.20115V20.7669C4 21.6034 4.31607 22.4057 4.87868 22.9973C5.44129 23.5888 6.20435 23.9211 7 23.9212H17C17.7956 23.9211 18.5587 23.5888 19.1213 22.9973C19.6839 22.4057 20 21.6034 20 20.7669V9.20115C20 8.92229 19.8946 8.65486 19.7071 8.45768C19.5196 8.2605 19.2652 8.14972 19 8.14972ZM10 7.09829C10 6.54058 10.2107 6.00571 10.5858 5.61135C10.9609 5.21699 11.4696 4.99544 12 4.99544C12.5304 4.99544 13.0391 5.21699 13.4142 5.61135C13.7893 6.00571 14 6.54058 14 7.09829V8.14972H10V7.09829ZM18 20.7669C18 21.0457 17.8946 21.3132 17.7071 21.5103C17.5196 21.7075 17.2652 21.8183 17 21.8183H7C6.73478 21.8183 6.48043 21.7075 6.29289 21.5103C6.10536 21.3132 6 21.0457 6 20.7669V10.2526H8V11.304C8 11.5829 8.10536 11.8503 8.29289 12.0475C8.48043 12.2447 8.73478 12.3554 9 12.3554C9.26522 12.3554 9.51957 12.2447 9.70711 12.0475C9.89464 11.8503 10 11.5829 10 11.304V10.2526H14V11.304C14 11.5829 14.1054 11.8503 14.2929 12.0475C14.4804 12.2447 14.7348 12.3554 15 12.3554C15.2652 12.3554 15.5196 12.2447 15.7071 12.0475C15.8946 11.8503 16 11.5829 16 11.304V10.2526H18V20.7669Z" fill="black"/>
</svg>
