<svg width="20" height="20" viewBox="0 0 20 20" fill="none" xmlns="http://www.w3.org/2000/svg">
<path fill-rule="evenodd" clip-rule="evenodd" d="M10.5883 13.0883C10.432 13.2445 10.2201 13.3323 9.99915 13.3323C9.77818 13.3323 9.56625 13.2445 9.40998 13.0883L4.69581 8.37415C4.61622 8.29727 4.55274 8.20532 4.50906 8.10365C4.46539 8.00198 4.4424 7.89263 4.44144 7.78198C4.44048 7.67133 4.46156 7.5616 4.50346 7.45919C4.54536 7.35677 4.60724 7.26373 4.68548 7.18548C4.76373 7.10724 4.85677 7.04536 4.95918 7.00346C5.0616 6.96156 5.17133 6.94048 5.28198 6.94144C5.39263 6.9424 5.50198 6.96539 5.60365 7.00906C5.70532 7.05274 5.79727 7.11622 5.87415 7.19581L9.99915 11.3208L14.1241 7.19581C14.2813 7.04401 14.4918 6.96002 14.7103 6.96192C14.9288 6.96382 15.1378 7.05146 15.2923 7.20596C15.4468 7.36047 15.5345 7.56948 15.5364 7.78798C15.5383 8.00648 15.4543 8.21698 15.3025 8.37415L10.5883 13.0883Z" fill="white"/>
</svg>
