<svg width="24" height="27" viewBox="0 0 24 27" fill="none" xmlns="http://www.w3.org/2000/svg">
<path d="M12.1 20.2931L12 20.3982L11.89 20.2931C7.14 15.7614 4 12.7648 4 9.72622C4 7.62336 5.5 6.04622 7.5 6.04622C9.04 6.04622 10.54 7.09764 11.07 8.52759H12.93C13.46 7.09764 14.96 6.04622 16.5 6.04622C18.5 6.04622 20 7.62336 20 9.72622C20 12.7648 16.86 15.7614 12.1 20.2931ZM16.5 3.94336C14.76 3.94336 13.09 4.79502 12 6.13033C10.91 4.79502 9.24 3.94336 7.5 3.94336C4.42 3.94336 2 6.4773 2 9.72622C2 13.6901 5.4 16.939 10.55 21.8492L12 23.2371L13.45 21.8492C18.6 16.939 22 13.6901 22 9.72622C22 6.4773 19.58 3.94336 16.5 3.94336Z" fill="black"/>
</svg>
